<svg xmlns="http://www.w3.org/2000/svg" version="1.1" viewBox="100 0 900 500" preserveAspectRatio="none">
<g stroke="black" stroke-width="0" fill="black" transform="scale(2.7)">
<path id="tutor1" class="no" d="M 250 35  l 42.845 21.422 a 4 4 0 0 1 0 7.155  l -91.056 45.528 a 4 4 0 0 1 -3.578 0  l -74.211 -37.106 78.015 -9.752 a 2 2 0 0 0 1.736 -2.233  l 0.001 0.006 a 2 2 0 0 0 -2.269 -1.732  l -81.484 11.71 0 40 2 0 0 2 -3 3 4 10 -10 0 4 -10 -3 -3 0 -2 2 0 0 -40.764 a 2 2 0 0 0 -1.106 -1.789  l -7.739 -3.87 a 4 4 0 0 1 0 -7.155  l 91.056 -45.528 a 4 4 0 0 1 3.578 0  l 48.211 24.106"></path>
<path id="tutor2" class="no" d="M 200 114 l 75.106 -37.553 a 2 2 0 0 1 2.894 1.789  l 0 48.846 a 4 4 0 0 1 -2.779 3.809  l -38.595 12.37 a 120 120 0 0 1 -73.252 0  l -34.695 -11.12 a 4 4 0 0 1 -2.779 -3.809  l 0 -22.082 -3.9 -1.25 0 -26.764 a 2 2 0 0 1 2.894 -1.789  l 75.106 37.553"></path>
</g>
   </svg>
